<?xml version="1.0" encoding="UTF-8" standalone="no"?>
<!DOCTYPE svg PUBLIC "-//W3C//DTD SVG 1.1//EN"
 "http://www.w3.org/Graphics/SVG/1.1/DTD/svg11.dtd">
<!-- Generated by graphviz version 2.43.0 (0)
 -->
<!-- Title: src/add.cpp Pages: 1 -->
<svg width="541pt" height="137pt"
 viewBox="0.00 0.00 541.23 137.00" xmlns="http://www.w3.org/2000/svg" xmlns:xlink="http://www.w3.org/1999/xlink">
<g id="graph0" class="graph" transform="scale(1 1) rotate(0) translate(4 133)">
<title>src/add.cpp</title>
<!-- Node1 -->
<g id="Node000001" class="node">
<title>Node1</title>
<g id="a_Node000001"><a xlink:title=" ">
<polygon fill="#999999" stroke="#666666" points="268.73,-129 196.73,-129 196.73,-110 268.73,-110 268.73,-129"/>
<text text-anchor="middle" x="232.73" y="-117" font-family="Helvetica,sans-Serif" font-size="10.00">src/add.cpp</text>
</a>
</g>
</g>
<!-- Node2 -->
<g id="Node000002" class="node">
<title>Node2</title>
<g id="a_Node000002"><a xlink:href="blob_8hpp.html" target="_top" xlink:title=" ">
<polygon fill="white" stroke="#666666" points="73.23,-74 14.23,-74 14.23,-55 73.23,-55 73.23,-74"/>
<text text-anchor="middle" x="43.73" y="-62" font-family="Helvetica,sans-Serif" font-size="10.00">blob.hpp</text>
</a>
</g>
</g>
<!-- Node1&#45;&gt;Node2 -->
<g id="edge1_Node000001_Node000002" class="edge">
<title>Node1&#45;&gt;Node2</title>
<g id="a_edge1_Node000001_Node000002"><a xlink:title=" ">
<path fill="none" stroke="#63b8ff" d="M202.37,-109.98C170.08,-100.93 118.87,-86.57 83.41,-76.63"/>
<polygon fill="#63b8ff" stroke="#63b8ff" points="83.97,-73.15 73.4,-73.82 82.08,-79.89 83.97,-73.15"/>
</a>
</g>
</g>
<!-- Node3 -->
<g id="Node000003" class="node">
<title>Node3</title>
<g id="a_Node000003"><a xlink:title=" ">
<polygon fill="#e0e0e0" stroke="#999999" points="77.73,-19 33.73,-19 33.73,0 77.73,0 77.73,-19"/>
<text text-anchor="middle" x="55.73" y="-7" font-family="Helvetica,sans-Serif" font-size="10.00">string</text>
</a>
</g>
</g>
<!-- Node1&#45;&gt;Node3 -->
<g id="edge9_Node000001_Node000003" class="edge">
<title>Node1&#45;&gt;Node3</title>
<g id="a_edge9_Node000001_Node000003"><a xlink:title=" ">
<path fill="none" stroke="#63b8ff" d="M196.73,-116.86C138.72,-113.38 28.64,-103.03 4.73,-74 -9.14,-57.15 12.26,-37.54 31.44,-24.61"/>
<polygon fill="#63b8ff" stroke="#63b8ff" points="33.41,-27.51 39.96,-19.18 29.64,-21.61 33.41,-27.51"/>
</a>
</g>
</g>
<!-- Node4 -->
<g id="Node000004" class="node">
<title>Node4</title>
<g id="a_Node000004"><a xlink:title=" ">
<polygon fill="#e0e0e0" stroke="#999999" points="307.73,-74 239.73,-74 239.73,-55 307.73,-55 307.73,-74"/>
<text text-anchor="middle" x="273.73" y="-62" font-family="Helvetica,sans-Serif" font-size="10.00">filesystem</text>
</a>
</g>
</g>
<!-- Node1&#45;&gt;Node4 -->
<g id="edge3_Node000001_Node000004" class="edge">
<title>Node1&#45;&gt;Node4</title>
<g id="a_edge3_Node000001_Node000004"><a xlink:title=" ">
<path fill="none" stroke="#63b8ff" d="M239.5,-109.75C245.3,-102.26 253.79,-91.28 260.87,-82.13"/>
<polygon fill="#63b8ff" stroke="#63b8ff" points="263.74,-84.14 267.09,-74.09 258.2,-79.86 263.74,-84.14"/>
</a>
</g>
</g>
<!-- Node5 -->
<g id="Node000005" class="node">
<title>Node5</title>
<g id="a_Node000005"><a xlink:title=" ">
<polygon fill="#e0e0e0" stroke="#999999" points="381.23,-74 326.23,-74 326.23,-55 381.23,-55 381.23,-74"/>
<text text-anchor="middle" x="353.73" y="-62" font-family="Helvetica,sans-Serif" font-size="10.00">fstream</text>
</a>
</g>
</g>
<!-- Node1&#45;&gt;Node5 -->
<g id="edge4_Node000001_Node000005" class="edge">
<title>Node1&#45;&gt;Node5</title>
<g id="a_edge4_Node000001_Node000005"><a xlink:title=" ">
<path fill="none" stroke="#63b8ff" d="M252.17,-109.98C271.73,-101.42 302.11,-88.11 324.56,-78.28"/>
<polygon fill="#63b8ff" stroke="#63b8ff" points="326.18,-81.39 333.94,-74.17 323.37,-74.98 326.18,-81.39"/>
</a>
</g>
</g>
<!-- Node6 -->
<g id="Node000006" class="node">
<title>Node6</title>
<g id="a_Node000006"><a xlink:title=" ">
<polygon fill="#e0e0e0" stroke="#999999" points="459.73,-74 399.73,-74 399.73,-55 459.73,-55 459.73,-74"/>
<text text-anchor="middle" x="429.73" y="-62" font-family="Helvetica,sans-Serif" font-size="10.00">iostream</text>
</a>
</g>
</g>
<!-- Node1&#45;&gt;Node6 -->
<g id="edge5_Node000001_Node000006" class="edge">
<title>Node1&#45;&gt;Node6</title>
<g id="a_edge5_Node000001_Node000006"><a xlink:title=" ">
<path fill="none" stroke="#63b8ff" d="M264.38,-109.98C298.39,-100.84 352.51,-86.28 389.5,-76.32"/>
<polygon fill="#63b8ff" stroke="#63b8ff" points="390.71,-79.62 399.45,-73.65 388.89,-72.86 390.71,-79.62"/>
</a>
</g>
</g>
<!-- Node7 -->
<g id="Node000007" class="node">
<title>Node7</title>
<g id="a_Node000007"><a xlink:href="sha_8hpp.html" target="_top" xlink:title=" ">
<polygon fill="white" stroke="#666666" points="146.23,-74 91.23,-74 91.23,-55 146.23,-55 146.23,-74"/>
<text text-anchor="middle" x="118.73" y="-62" font-family="Helvetica,sans-Serif" font-size="10.00">sha.hpp</text>
</a>
</g>
</g>
<!-- Node1&#45;&gt;Node7 -->
<g id="edge6_Node000001_Node000007" class="edge">
<title>Node1&#45;&gt;Node7</title>
<g id="a_edge6_Node000001_Node000007"><a xlink:title=" ">
<path fill="none" stroke="#63b8ff" d="M214.42,-109.98C196.08,-101.46 167.62,-88.23 146.51,-78.41"/>
<polygon fill="#63b8ff" stroke="#63b8ff" points="147.93,-75.21 137.38,-74.17 144.98,-81.56 147.93,-75.21"/>
</a>
</g>
</g>
<!-- Node9 -->
<g id="Node000009" class="node">
<title>Node9</title>
<g id="a_Node000009"><a xlink:href="tree_8hpp.html" target="_top" xlink:title=" ">
<polygon fill="white" stroke="#666666" points="221.23,-74 164.23,-74 164.23,-55 221.23,-55 221.23,-74"/>
<text text-anchor="middle" x="192.73" y="-62" font-family="Helvetica,sans-Serif" font-size="10.00">tree.hpp</text>
</a>
</g>
</g>
<!-- Node1&#45;&gt;Node9 -->
<g id="edge10_Node000001_Node000009" class="edge">
<title>Node1&#45;&gt;Node9</title>
<g id="a_edge10_Node000001_Node000009"><a xlink:title=" ">
<path fill="none" stroke="#63b8ff" d="M226.13,-109.75C220.48,-102.26 212.19,-91.28 205.28,-82.13"/>
<polygon fill="#63b8ff" stroke="#63b8ff" points="208.03,-79.96 199.22,-74.09 202.45,-84.18 208.03,-79.96"/>
</a>
</g>
</g>
<!-- Node11 -->
<g id="Node000011" class="node">
<title>Node11</title>
<g id="a_Node000011"><a xlink:title=" ">
<polygon fill="#e0e0e0" stroke="#999999" points="533.23,-74 478.23,-74 478.23,-55 533.23,-55 533.23,-74"/>
<text text-anchor="middle" x="505.73" y="-62" font-family="Helvetica,sans-Serif" font-size="10.00">zstr.hpp</text>
</a>
</g>
</g>
<!-- Node1&#45;&gt;Node11 -->
<g id="edge14_Node000001_Node000011" class="edge">
<title>Node1&#45;&gt;Node11</title>
<g id="a_edge14_Node000001_Node000011"><a xlink:title=" ">
<path fill="none" stroke="#63b8ff" d="M268.81,-112.15C313.27,-104.23 391.39,-89.99 468.05,-74.07"/>
<polygon fill="#63b8ff" stroke="#63b8ff" points="468.81,-77.49 477.88,-72.02 467.37,-70.64 468.81,-77.49"/>
</a>
</g>
</g>
<!-- Node2&#45;&gt;Node3 -->
<g id="edge2_Node000002_Node000003" class="edge">
<title>Node2&#45;&gt;Node3</title>
<g id="a_edge2_Node000002_Node000003"><a xlink:title=" ">
<path fill="none" stroke="#63b8ff" d="M45.72,-54.75C47.31,-47.72 49.59,-37.62 51.58,-28.84"/>
<polygon fill="#63b8ff" stroke="#63b8ff" points="54.99,-29.62 53.79,-19.09 48.17,-28.07 54.99,-29.62"/>
</a>
</g>
</g>
<!-- Node7&#45;&gt;Node3 -->
<g id="edge7_Node000007_Node000003" class="edge">
<title>Node7&#45;&gt;Node3</title>
<g id="a_edge7_Node000007_Node000003"><a xlink:title=" ">
<path fill="none" stroke="#63b8ff" d="M108.61,-54.98C99.3,-47.15 85.27,-35.34 74,-25.86"/>
<polygon fill="#63b8ff" stroke="#63b8ff" points="75.95,-22.93 66.04,-19.17 71.44,-28.29 75.95,-22.93"/>
</a>
</g>
</g>
<!-- Node8 -->
<g id="Node000008" class="node">
<title>Node8</title>
<g id="a_Node000008"><a xlink:title=" ">
<polygon fill="#e0e0e0" stroke="#999999" points="148.23,-19 101.23,-19 101.23,0 148.23,0 148.23,-19"/>
<text text-anchor="middle" x="124.73" y="-7" font-family="Helvetica,sans-Serif" font-size="10.00">vector</text>
</a>
</g>
</g>
<!-- Node7&#45;&gt;Node8 -->
<g id="edge8_Node000007_Node000008" class="edge">
<title>Node7&#45;&gt;Node8</title>
<g id="a_edge8_Node000007_Node000008"><a xlink:title=" ">
<path fill="none" stroke="#63b8ff" d="M119.72,-54.75C120.51,-47.8 121.64,-37.85 122.62,-29.13"/>
<polygon fill="#63b8ff" stroke="#63b8ff" points="126.11,-29.42 123.76,-19.09 119.16,-28.63 126.11,-29.42"/>
</a>
</g>
</g>
<!-- Node9&#45;&gt;Node3 -->
<g id="edge11_Node000009_Node000003" class="edge">
<title>Node9&#45;&gt;Node3</title>
<g id="a_edge11_Node000009_Node000003"><a xlink:title=" ">
<path fill="none" stroke="#63b8ff" d="M170.72,-54.98C148.29,-46.3 113.25,-32.75 87.75,-22.88"/>
<polygon fill="#63b8ff" stroke="#63b8ff" points="88.73,-19.51 78.15,-19.17 86.21,-26.04 88.73,-19.51"/>
</a>
</g>
</g>
<!-- Node9&#45;&gt;Node8 -->
<g id="edge13_Node000009_Node000008" class="edge">
<title>Node9&#45;&gt;Node8</title>
<g id="a_edge13_Node000009_Node000008"><a xlink:title=" ">
<path fill="none" stroke="#63b8ff" d="M181.81,-54.98C171.66,-47.07 156.31,-35.11 144.09,-25.58"/>
<polygon fill="#63b8ff" stroke="#63b8ff" points="145.9,-22.56 135.86,-19.17 141.59,-28.08 145.9,-22.56"/>
</a>
</g>
</g>
<!-- Node10 -->
<g id="Node000010" class="node">
<title>Node10</title>
<g id="a_Node000010"><a xlink:title=" ">
<polygon fill="#e0e0e0" stroke="#999999" points="211.73,-19 173.73,-19 173.73,0 211.73,0 211.73,-19"/>
<text text-anchor="middle" x="192.73" y="-7" font-family="Helvetica,sans-Serif" font-size="10.00">map</text>
</a>
</g>
</g>
<!-- Node9&#45;&gt;Node10 -->
<g id="edge12_Node000009_Node000010" class="edge">
<title>Node9&#45;&gt;Node10</title>
<g id="a_edge12_Node000009_Node000010"><a xlink:title=" ">
<path fill="none" stroke="#63b8ff" d="M192.73,-54.75C192.73,-47.8 192.73,-37.85 192.73,-29.13"/>
<polygon fill="#63b8ff" stroke="#63b8ff" points="196.23,-29.09 192.73,-19.09 189.23,-29.09 196.23,-29.09"/>
</a>
</g>
</g>
</g>
</svg>
