<?xml version="1.0" encoding="UTF-8" standalone="no"?>
<!DOCTYPE svg PUBLIC "-//W3C//DTD SVG 1.1//EN"
 "http://www.w3.org/Graphics/SVG/1.1/DTD/svg11.dtd">
<!-- Generated by graphviz version 2.43.0 (0)
 -->
<!-- Title: src/checkout.cpp Pages: 1 -->
<svg width="441pt" height="192pt"
 viewBox="0.00 0.00 440.50 192.00" xmlns="http://www.w3.org/2000/svg" xmlns:xlink="http://www.w3.org/1999/xlink">
<g id="graph0" class="graph" transform="scale(1 1) rotate(0) translate(4 188)">
<title>src/checkout.cpp</title>
<!-- Node1 -->
<g id="Node000001" class="node">
<title>Node1</title>
<g id="a_Node000001"><a xlink:title=" ">
<polygon fill="#999999" stroke="#666666" points="260,-184 162,-184 162,-165 260,-165 260,-184"/>
<text text-anchor="middle" x="211" y="-172" font-family="Helvetica,sans-Serif" font-size="10.00">src/checkout.cpp</text>
</a>
</g>
</g>
<!-- Node2 -->
<g id="Node000002" class="node">
<title>Node2</title>
<g id="a_Node000002"><a xlink:href="commit_8hpp.html" target="_top" xlink:title=" ">
<polygon fill="white" stroke="#666666" points="82.5,-129 7.5,-129 7.5,-110 82.5,-110 82.5,-129"/>
<text text-anchor="middle" x="45" y="-117" font-family="Helvetica,sans-Serif" font-size="10.00">commit.hpp</text>
</a>
</g>
</g>
<!-- Node1&#45;&gt;Node2 -->
<g id="edge1_Node000001_Node000002" class="edge">
<title>Node1&#45;&gt;Node2</title>
<g id="a_edge1_Node000001_Node000002"><a xlink:title=" ">
<path fill="none" stroke="#63b8ff" d="M184.33,-164.98C156.46,-156.09 112.55,-142.07 81.48,-132.15"/>
<polygon fill="#63b8ff" stroke="#63b8ff" points="82.47,-128.79 71.88,-129.08 80.34,-135.46 82.47,-128.79"/>
</a>
</g>
</g>
<!-- Node5 -->
<g id="Node000005" class="node">
<title>Node5</title>
<g id="a_Node000005"><a xlink:href="tree_8hpp.html" target="_top" xlink:title=" ">
<polygon fill="white" stroke="#666666" points="142.5,-74 85.5,-74 85.5,-55 142.5,-55 142.5,-74"/>
<text text-anchor="middle" x="114" y="-62" font-family="Helvetica,sans-Serif" font-size="10.00">tree.hpp</text>
</a>
</g>
</g>
<!-- Node1&#45;&gt;Node5 -->
<g id="edge11_Node000001_Node000005" class="edge">
<title>Node1&#45;&gt;Node5</title>
<g id="a_edge11_Node000001_Node000005"><a xlink:title=" ">
<path fill="none" stroke="#63b8ff" d="M184.28,-164.88C166.68,-157.87 144.49,-146.29 131,-129 121.02,-116.2 116.88,-98.03 115.18,-84.41"/>
<polygon fill="#63b8ff" stroke="#63b8ff" points="118.64,-83.88 114.24,-74.24 111.67,-84.52 118.64,-83.88"/>
</a>
</g>
</g>
<!-- Node8 -->
<g id="Node000008" class="node">
<title>Node8</title>
<g id="a_Node000008"><a xlink:title=" ">
<polygon fill="#e0e0e0" stroke="#999999" points="200,-129 140,-129 140,-110 200,-110 200,-129"/>
<text text-anchor="middle" x="170" y="-117" font-family="Helvetica,sans-Serif" font-size="10.00">iostream</text>
</a>
</g>
</g>
<!-- Node1&#45;&gt;Node8 -->
<g id="edge8_Node000001_Node000008" class="edge">
<title>Node1&#45;&gt;Node8</title>
<g id="a_edge8_Node000001_Node000008"><a xlink:title=" ">
<path fill="none" stroke="#63b8ff" d="M204.23,-164.75C198.44,-157.26 189.94,-146.28 182.86,-137.13"/>
<polygon fill="#63b8ff" stroke="#63b8ff" points="185.53,-134.86 176.64,-129.09 179.99,-139.14 185.53,-134.86"/>
</a>
</g>
</g>
<!-- Node9 -->
<g id="Node000009" class="node">
<title>Node9</title>
<g id="a_Node000009"><a xlink:title=" ">
<polygon fill="#e0e0e0" stroke="#999999" points="286,-129 218,-129 218,-110 286,-110 286,-129"/>
<text text-anchor="middle" x="252" y="-117" font-family="Helvetica,sans-Serif" font-size="10.00">filesystem</text>
</a>
</g>
</g>
<!-- Node1&#45;&gt;Node9 -->
<g id="edge9_Node000001_Node000009" class="edge">
<title>Node1&#45;&gt;Node9</title>
<g id="a_edge9_Node000001_Node000009"><a xlink:title=" ">
<path fill="none" stroke="#63b8ff" d="M217.77,-164.75C223.56,-157.26 232.06,-146.28 239.14,-137.13"/>
<polygon fill="#63b8ff" stroke="#63b8ff" points="242.01,-139.14 245.36,-129.09 236.47,-134.86 242.01,-139.14"/>
</a>
</g>
</g>
<!-- Node10 -->
<g id="Node000010" class="node">
<title>Node10</title>
<g id="a_Node000010"><a xlink:title=" ">
<polygon fill="#e0e0e0" stroke="#999999" points="359.5,-129 304.5,-129 304.5,-110 359.5,-110 359.5,-129"/>
<text text-anchor="middle" x="332" y="-117" font-family="Helvetica,sans-Serif" font-size="10.00">fstream</text>
</a>
</g>
</g>
<!-- Node1&#45;&gt;Node10 -->
<g id="edge10_Node000001_Node000010" class="edge">
<title>Node1&#45;&gt;Node10</title>
<g id="a_edge10_Node000001_Node000010"><a xlink:title=" ">
<path fill="none" stroke="#63b8ff" d="M230.44,-164.98C249.99,-156.42 280.38,-143.11 302.82,-133.28"/>
<polygon fill="#63b8ff" stroke="#63b8ff" points="304.45,-136.39 312.21,-129.17 301.64,-129.98 304.45,-136.39"/>
</a>
</g>
</g>
<!-- Node11 -->
<g id="Node000011" class="node">
<title>Node11</title>
<g id="a_Node000011"><a xlink:title=" ">
<polygon fill="#e0e0e0" stroke="#999999" points="432.5,-129 377.5,-129 377.5,-110 432.5,-110 432.5,-129"/>
<text text-anchor="middle" x="405" y="-117" font-family="Helvetica,sans-Serif" font-size="10.00">zstr.hpp</text>
</a>
</g>
</g>
<!-- Node1&#45;&gt;Node11 -->
<g id="edge12_Node000001_Node000011" class="edge">
<title>Node1&#45;&gt;Node11</title>
<g id="a_edge12_Node000001_Node000011"><a xlink:title=" ">
<path fill="none" stroke="#63b8ff" d="M242.17,-164.98C276.34,-155.65 331.14,-140.68 367.6,-130.72"/>
<polygon fill="#63b8ff" stroke="#63b8ff" points="368.64,-134.06 377.36,-128.05 366.8,-127.31 368.64,-134.06"/>
</a>
</g>
</g>
<!-- Node3 -->
<g id="Node000003" class="node">
<title>Node3</title>
<g id="a_Node000003"><a xlink:title=" ">
<polygon fill="#e0e0e0" stroke="#999999" points="44,-19 0,-19 0,0 44,0 44,-19"/>
<text text-anchor="middle" x="22" y="-7" font-family="Helvetica,sans-Serif" font-size="10.00">string</text>
</a>
</g>
</g>
<!-- Node2&#45;&gt;Node3 -->
<g id="edge2_Node000002_Node000003" class="edge">
<title>Node2&#45;&gt;Node3</title>
<g id="a_edge2_Node000002_Node000003"><a xlink:title=" ">
<path fill="none" stroke="#63b8ff" d="M34.56,-109.87C25.58,-101.7 13.26,-88.55 8,-74 2.61,-59.09 7.35,-41.42 12.72,-28.52"/>
<polygon fill="#63b8ff" stroke="#63b8ff" points="15.95,-29.87 16.99,-19.33 9.6,-26.93 15.95,-29.87"/>
</a>
</g>
</g>
<!-- Node4 -->
<g id="Node000004" class="node">
<title>Node4</title>
<g id="a_Node000004"><a xlink:title=" ">
<polygon fill="#e0e0e0" stroke="#999999" points="67,-74 17,-74 17,-55 67,-55 67,-74"/>
<text text-anchor="middle" x="42" y="-62" font-family="Helvetica,sans-Serif" font-size="10.00">chrono</text>
</a>
</g>
</g>
<!-- Node2&#45;&gt;Node4 -->
<g id="edge3_Node000002_Node000004" class="edge">
<title>Node2&#45;&gt;Node4</title>
<g id="a_edge3_Node000002_Node000004"><a xlink:title=" ">
<path fill="none" stroke="#63b8ff" d="M44.5,-109.75C44.11,-102.8 43.55,-92.85 43.05,-84.13"/>
<polygon fill="#63b8ff" stroke="#63b8ff" points="46.55,-83.88 42.49,-74.09 39.56,-84.27 46.55,-83.88"/>
</a>
</g>
</g>
<!-- Node2&#45;&gt;Node5 -->
<g id="edge4_Node000002_Node000005" class="edge">
<title>Node2&#45;&gt;Node5</title>
<g id="a_edge4_Node000002_Node000005"><a xlink:title=" ">
<path fill="none" stroke="#63b8ff" d="M56.09,-109.98C66.49,-102 82.26,-89.88 94.72,-80.31"/>
<polygon fill="#63b8ff" stroke="#63b8ff" points="96.91,-83.04 102.71,-74.17 92.65,-77.49 96.91,-83.04"/>
</a>
</g>
</g>
<!-- Node5&#45;&gt;Node3 -->
<g id="edge5_Node000005_Node000003" class="edge">
<title>Node5&#45;&gt;Node3</title>
<g id="a_edge5_Node000005_Node000003"><a xlink:title=" ">
<path fill="none" stroke="#63b8ff" d="M99.22,-54.98C84.82,-46.69 62.69,-33.94 45.81,-24.22"/>
<polygon fill="#63b8ff" stroke="#63b8ff" points="47.46,-21.13 37.05,-19.17 43.97,-27.19 47.46,-21.13"/>
</a>
</g>
</g>
<!-- Node6 -->
<g id="Node000006" class="node">
<title>Node6</title>
<g id="a_Node000006"><a xlink:title=" ">
<polygon fill="#e0e0e0" stroke="#999999" points="102,-19 64,-19 64,0 102,0 102,-19"/>
<text text-anchor="middle" x="83" y="-7" font-family="Helvetica,sans-Serif" font-size="10.00">map</text>
</a>
</g>
</g>
<!-- Node5&#45;&gt;Node6 -->
<g id="edge6_Node000005_Node000006" class="edge">
<title>Node5&#45;&gt;Node6</title>
<g id="a_edge6_Node000005_Node000006"><a xlink:title=" ">
<path fill="none" stroke="#63b8ff" d="M108.88,-54.75C104.64,-47.49 98.47,-36.95 93.22,-27.98"/>
<polygon fill="#63b8ff" stroke="#63b8ff" points="96.09,-25.95 88.02,-19.09 90.05,-29.49 96.09,-25.95"/>
</a>
</g>
</g>
<!-- Node7 -->
<g id="Node000007" class="node">
<title>Node7</title>
<g id="a_Node000007"><a xlink:title=" ">
<polygon fill="#e0e0e0" stroke="#999999" points="167.5,-19 120.5,-19 120.5,0 167.5,0 167.5,-19"/>
<text text-anchor="middle" x="144" y="-7" font-family="Helvetica,sans-Serif" font-size="10.00">vector</text>
</a>
</g>
</g>
<!-- Node5&#45;&gt;Node7 -->
<g id="edge7_Node000005_Node000007" class="edge">
<title>Node5&#45;&gt;Node7</title>
<g id="a_edge7_Node000005_Node000007"><a xlink:title=" ">
<path fill="none" stroke="#63b8ff" d="M118.95,-54.75C123.06,-47.49 129.03,-36.95 134.1,-27.98"/>
<polygon fill="#63b8ff" stroke="#63b8ff" points="137.26,-29.52 139.14,-19.09 131.17,-26.07 137.26,-29.52"/>
</a>
</g>
</g>
</g>
</svg>
