<?xml version="1.0" encoding="UTF-8" standalone="no"?>
<!DOCTYPE svg PUBLIC "-//W3C//DTD SVG 1.1//EN"
 "http://www.w3.org/Graphics/SVG/1.1/DTD/svg11.dtd">
<!-- Generated by graphviz version 2.43.0 (0)
 -->
<!-- Title: src/commit.cpp Pages: 1 -->
<svg width="416pt" height="192pt"
 viewBox="0.00 0.00 415.50 192.00" xmlns="http://www.w3.org/2000/svg" xmlns:xlink="http://www.w3.org/1999/xlink">
<g id="graph0" class="graph" transform="scale(1 1) rotate(0) translate(4 188)">
<title>src/commit.cpp</title>
<!-- Node1 -->
<g id="Node000001" class="node">
<title>Node1</title>
<g id="a_Node000001"><a xlink:title=" ">
<polygon fill="#999999" stroke="#666666" points="278,-184 186,-184 186,-165 278,-165 278,-184"/>
<text text-anchor="middle" x="232" y="-172" font-family="Helvetica,sans-Serif" font-size="10.00">src/commit.cpp</text>
</a>
</g>
</g>
<!-- Node2 -->
<g id="Node000002" class="node">
<title>Node2</title>
<g id="a_Node000002"><a xlink:href="commit_8hpp.html" target="_top" xlink:title=" ">
<polygon fill="white" stroke="#666666" points="121.5,-129 46.5,-129 46.5,-110 121.5,-110 121.5,-129"/>
<text text-anchor="middle" x="84" y="-117" font-family="Helvetica,sans-Serif" font-size="10.00">commit.hpp</text>
</a>
</g>
</g>
<!-- Node1&#45;&gt;Node2 -->
<g id="edge1_Node000001_Node000002" class="edge">
<title>Node1&#45;&gt;Node2</title>
<g id="a_edge1_Node000001_Node000002"><a xlink:title=" ">
<path fill="none" stroke="#63b8ff" d="M208.22,-164.98C183.77,-156.23 145.47,-142.51 117.85,-132.62"/>
<polygon fill="#63b8ff" stroke="#63b8ff" points="118.81,-129.25 108.21,-129.17 116.45,-135.84 118.81,-129.25"/>
</a>
</g>
</g>
<!-- Node8 -->
<g id="Node000008" class="node">
<title>Node8</title>
<g id="a_Node000008"><a xlink:title=" ">
<polygon fill="#e0e0e0" stroke="#999999" points="266,-129 198,-129 198,-110 266,-110 266,-129"/>
<text text-anchor="middle" x="232" y="-117" font-family="Helvetica,sans-Serif" font-size="10.00">filesystem</text>
</a>
</g>
</g>
<!-- Node1&#45;&gt;Node8 -->
<g id="edge8_Node000001_Node000008" class="edge">
<title>Node1&#45;&gt;Node8</title>
<g id="a_edge8_Node000001_Node000008"><a xlink:title=" ">
<path fill="none" stroke="#63b8ff" d="M232,-164.75C232,-157.8 232,-147.85 232,-139.13"/>
<polygon fill="#63b8ff" stroke="#63b8ff" points="235.5,-139.09 232,-129.09 228.5,-139.09 235.5,-139.09"/>
</a>
</g>
</g>
<!-- Node9 -->
<g id="Node000009" class="node">
<title>Node9</title>
<g id="a_Node000009"><a xlink:title=" ">
<polygon fill="#e0e0e0" stroke="#999999" points="334,-129 284,-129 284,-110 334,-110 334,-129"/>
<text text-anchor="middle" x="309" y="-117" font-family="Helvetica,sans-Serif" font-size="10.00">format</text>
</a>
</g>
</g>
<!-- Node1&#45;&gt;Node9 -->
<g id="edge9_Node000001_Node000009" class="edge">
<title>Node1&#45;&gt;Node9</title>
<g id="a_edge9_Node000001_Node000009"><a xlink:title=" ">
<path fill="none" stroke="#63b8ff" d="M244.37,-164.98C256.09,-156.92 273.92,-144.65 287.89,-135.03"/>
<polygon fill="#63b8ff" stroke="#63b8ff" points="290.15,-137.72 296.4,-129.17 286.18,-131.96 290.15,-137.72"/>
</a>
</g>
</g>
<!-- Node10 -->
<g id="Node000010" class="node">
<title>Node10</title>
<g id="a_Node000010"><a xlink:href="sha_8hpp.html" target="_top" xlink:title=" ">
<polygon fill="white" stroke="#666666" points="218.5,-74 163.5,-74 163.5,-55 218.5,-55 218.5,-74"/>
<text text-anchor="middle" x="191" y="-62" font-family="Helvetica,sans-Serif" font-size="10.00">sha.hpp</text>
</a>
</g>
</g>
<!-- Node1&#45;&gt;Node10 -->
<g id="edge10_Node000001_Node000010" class="edge">
<title>Node1&#45;&gt;Node10</title>
<g id="a_edge10_Node000001_Node000010"><a xlink:title=" ">
<path fill="none" stroke="#63b8ff" d="M219.51,-164.93C209.13,-156.99 195.12,-144.14 189,-129 183.25,-114.76 184.34,-97.23 186.54,-84.2"/>
<polygon fill="#63b8ff" stroke="#63b8ff" points="190.03,-84.6 188.61,-74.1 183.17,-83.19 190.03,-84.6"/>
</a>
</g>
</g>
<!-- Node11 -->
<g id="Node000011" class="node">
<title>Node11</title>
<g id="a_Node000011"><a xlink:title=" ">
<polygon fill="#e0e0e0" stroke="#999999" points="407.5,-129 352.5,-129 352.5,-110 407.5,-110 407.5,-129"/>
<text text-anchor="middle" x="380" y="-117" font-family="Helvetica,sans-Serif" font-size="10.00">zstr.hpp</text>
</a>
</g>
</g>
<!-- Node1&#45;&gt;Node11 -->
<g id="edge13_Node000001_Node000011" class="edge">
<title>Node1&#45;&gt;Node11</title>
<g id="a_edge13_Node000001_Node000011"><a xlink:title=" ">
<path fill="none" stroke="#63b8ff" d="M255.78,-164.98C280.23,-156.23 318.53,-142.51 346.15,-132.62"/>
<polygon fill="#63b8ff" stroke="#63b8ff" points="347.55,-135.84 355.79,-129.17 345.19,-129.25 347.55,-135.84"/>
</a>
</g>
</g>
<!-- Node3 -->
<g id="Node000003" class="node">
<title>Node3</title>
<g id="a_Node000003"><a xlink:title=" ">
<polygon fill="#e0e0e0" stroke="#999999" points="100,-19 56,-19 56,0 100,0 100,-19"/>
<text text-anchor="middle" x="78" y="-7" font-family="Helvetica,sans-Serif" font-size="10.00">string</text>
</a>
</g>
</g>
<!-- Node2&#45;&gt;Node3 -->
<g id="edge2_Node000002_Node000003" class="edge">
<title>Node2&#45;&gt;Node3</title>
<g id="a_edge2_Node000002_Node000003"><a xlink:title=" ">
<path fill="none" stroke="#63b8ff" d="M56.71,-109.88C40,-103.03 19.96,-91.62 10,-74 -1.95,-52.87 23.57,-34.66 46.68,-23.23"/>
<polygon fill="#63b8ff" stroke="#63b8ff" points="48.4,-26.29 55.99,-18.9 45.45,-19.94 48.4,-26.29"/>
</a>
</g>
</g>
<!-- Node4 -->
<g id="Node000004" class="node">
<title>Node4</title>
<g id="a_Node000004"><a xlink:title=" ">
<polygon fill="#e0e0e0" stroke="#999999" points="145,-74 95,-74 95,-55 145,-55 145,-74"/>
<text text-anchor="middle" x="120" y="-62" font-family="Helvetica,sans-Serif" font-size="10.00">chrono</text>
</a>
</g>
</g>
<!-- Node2&#45;&gt;Node4 -->
<g id="edge3_Node000002_Node000004" class="edge">
<title>Node2&#45;&gt;Node4</title>
<g id="a_edge3_Node000002_Node000004"><a xlink:title=" ">
<path fill="none" stroke="#63b8ff" d="M89.94,-109.75C94.98,-102.34 102.34,-91.5 108.51,-82.41"/>
<polygon fill="#63b8ff" stroke="#63b8ff" points="111.44,-84.33 114.17,-74.09 105.65,-80.39 111.44,-84.33"/>
</a>
</g>
</g>
<!-- Node5 -->
<g id="Node000005" class="node">
<title>Node5</title>
<g id="a_Node000005"><a xlink:href="tree_8hpp.html" target="_top" xlink:title=" ">
<polygon fill="white" stroke="#666666" points="76.5,-74 19.5,-74 19.5,-55 76.5,-55 76.5,-74"/>
<text text-anchor="middle" x="48" y="-62" font-family="Helvetica,sans-Serif" font-size="10.00">tree.hpp</text>
</a>
</g>
</g>
<!-- Node2&#45;&gt;Node5 -->
<g id="edge4_Node000002_Node000005" class="edge">
<title>Node2&#45;&gt;Node5</title>
<g id="a_edge4_Node000002_Node000005"><a xlink:title=" ">
<path fill="none" stroke="#63b8ff" d="M78.06,-109.75C73.02,-102.34 65.66,-91.5 59.49,-82.41"/>
<polygon fill="#63b8ff" stroke="#63b8ff" points="62.35,-80.39 53.83,-74.09 56.56,-84.33 62.35,-80.39"/>
</a>
</g>
</g>
<!-- Node5&#45;&gt;Node3 -->
<g id="edge5_Node000005_Node000003" class="edge">
<title>Node5&#45;&gt;Node3</title>
<g id="a_edge5_Node000005_Node000003"><a xlink:title=" ">
<path fill="none" stroke="#63b8ff" d="M52.95,-54.75C57.06,-47.49 63.03,-36.95 68.1,-27.98"/>
<polygon fill="#63b8ff" stroke="#63b8ff" points="71.26,-29.52 73.14,-19.09 65.17,-26.07 71.26,-29.52"/>
</a>
</g>
</g>
<!-- Node6 -->
<g id="Node000006" class="node">
<title>Node6</title>
<g id="a_Node000006"><a xlink:title=" ">
<polygon fill="#e0e0e0" stroke="#999999" points="38,-19 0,-19 0,0 38,0 38,-19"/>
<text text-anchor="middle" x="19" y="-7" font-family="Helvetica,sans-Serif" font-size="10.00">map</text>
</a>
</g>
</g>
<!-- Node5&#45;&gt;Node6 -->
<g id="edge6_Node000005_Node000006" class="edge">
<title>Node5&#45;&gt;Node6</title>
<g id="a_edge6_Node000005_Node000006"><a xlink:title=" ">
<path fill="none" stroke="#63b8ff" d="M43.21,-54.75C39.24,-47.49 33.47,-36.95 28.57,-27.98"/>
<polygon fill="#63b8ff" stroke="#63b8ff" points="31.57,-26.18 23.7,-19.09 25.43,-29.54 31.57,-26.18"/>
</a>
</g>
</g>
<!-- Node7 -->
<g id="Node000007" class="node">
<title>Node7</title>
<g id="a_Node000007"><a xlink:title=" ">
<polygon fill="#e0e0e0" stroke="#999999" points="175.5,-19 128.5,-19 128.5,0 175.5,0 175.5,-19"/>
<text text-anchor="middle" x="152" y="-7" font-family="Helvetica,sans-Serif" font-size="10.00">vector</text>
</a>
</g>
</g>
<!-- Node5&#45;&gt;Node7 -->
<g id="edge7_Node000005_Node000007" class="edge">
<title>Node5&#45;&gt;Node7</title>
<g id="a_edge7_Node000005_Node000007"><a xlink:title=" ">
<path fill="none" stroke="#63b8ff" d="M64.71,-54.98C81.21,-46.57 106.7,-33.59 125.88,-23.81"/>
<polygon fill="#63b8ff" stroke="#63b8ff" points="127.67,-26.83 134.99,-19.17 124.49,-20.59 127.67,-26.83"/>
</a>
</g>
</g>
<!-- Node10&#45;&gt;Node3 -->
<g id="edge11_Node000010_Node000003" class="edge">
<title>Node10&#45;&gt;Node3</title>
<g id="a_edge11_Node000010_Node000003"><a xlink:title=" ">
<path fill="none" stroke="#63b8ff" d="M172.84,-54.98C154.75,-46.5 126.72,-33.35 105.81,-23.54"/>
<polygon fill="#63b8ff" stroke="#63b8ff" points="107.03,-20.25 96.49,-19.17 104.05,-26.59 107.03,-20.25"/>
</a>
</g>
</g>
<!-- Node10&#45;&gt;Node7 -->
<g id="edge12_Node000010_Node000007" class="edge">
<title>Node10&#45;&gt;Node7</title>
<g id="a_edge12_Node000010_Node000007"><a xlink:title=" ">
<path fill="none" stroke="#63b8ff" d="M184.56,-54.75C179.11,-47.34 171.14,-36.5 164.44,-27.41"/>
<polygon fill="#63b8ff" stroke="#63b8ff" points="167.07,-25.07 158.32,-19.09 161.43,-29.22 167.07,-25.07"/>
</a>
</g>
</g>
</g>
</svg>
