<?xml version="1.0" encoding="UTF-8" standalone="no"?>
<!DOCTYPE svg PUBLIC "-//W3C//DTD SVG 1.1//EN"
 "http://www.w3.org/Graphics/SVG/1.1/DTD/svg11.dtd">
<!-- Generated by graphviz version 2.43.0 (0)
 -->
<!-- Title: src/log.cpp Pages: 1 -->
<svg width="400pt" height="192pt"
 viewBox="0.00 0.00 399.50 192.00" xmlns="http://www.w3.org/2000/svg" xmlns:xlink="http://www.w3.org/1999/xlink">
<g id="graph0" class="graph" transform="scale(1 1) rotate(0) translate(4 188)">
<title>src/log.cpp</title>
<!-- Node1 -->
<g id="Node000001" class="node">
<title>Node1</title>
<g id="a_Node000001"><a xlink:title=" ">
<polygon fill="#999999" stroke="#666666" points="246.5,-184 177.5,-184 177.5,-165 246.5,-165 246.5,-184"/>
<text text-anchor="middle" x="212" y="-172" font-family="Helvetica,sans-Serif" font-size="10.00">src/log.cpp</text>
</a>
</g>
</g>
<!-- Node2 -->
<g id="Node000002" class="node">
<title>Node2</title>
<g id="a_Node000002"><a xlink:href="commit_8hpp.html" target="_top" xlink:title=" ">
<polygon fill="white" stroke="#666666" points="79.5,-129 4.5,-129 4.5,-110 79.5,-110 79.5,-129"/>
<text text-anchor="middle" x="42" y="-117" font-family="Helvetica,sans-Serif" font-size="10.00">commit.hpp</text>
</a>
</g>
</g>
<!-- Node1&#45;&gt;Node2 -->
<g id="edge1_Node000001_Node000002" class="edge">
<title>Node1&#45;&gt;Node2</title>
<g id="a_edge1_Node000001_Node000002"><a xlink:title=" ">
<path fill="none" stroke="#63b8ff" d="M184.69,-164.98C156.15,-156.09 111.17,-142.07 79.36,-132.15"/>
<polygon fill="#63b8ff" stroke="#63b8ff" points="80.12,-128.72 69.53,-129.08 78.03,-135.4 80.12,-128.72"/>
</a>
</g>
</g>
<!-- Node8 -->
<g id="Node000008" class="node">
<title>Node8</title>
<g id="a_Node000008"><a xlink:title=" ">
<polygon fill="#e0e0e0" stroke="#999999" points="166,-129 98,-129 98,-110 166,-110 166,-129"/>
<text text-anchor="middle" x="132" y="-117" font-family="Helvetica,sans-Serif" font-size="10.00">filesystem</text>
</a>
</g>
</g>
<!-- Node1&#45;&gt;Node8 -->
<g id="edge8_Node000001_Node000008" class="edge">
<title>Node1&#45;&gt;Node8</title>
<g id="a_edge8_Node000001_Node000008"><a xlink:title=" ">
<path fill="none" stroke="#63b8ff" d="M199.15,-164.98C186.86,-156.84 168.09,-144.41 153.52,-134.76"/>
<polygon fill="#63b8ff" stroke="#63b8ff" points="155.36,-131.78 145.09,-129.17 151.49,-137.61 155.36,-131.78"/>
</a>
</g>
</g>
<!-- Node9 -->
<g id="Node000009" class="node">
<title>Node9</title>
<g id="a_Node000009"><a xlink:title=" ">
<polygon fill="#e0e0e0" stroke="#999999" points="239.5,-129 184.5,-129 184.5,-110 239.5,-110 239.5,-129"/>
<text text-anchor="middle" x="212" y="-117" font-family="Helvetica,sans-Serif" font-size="10.00">fstream</text>
</a>
</g>
</g>
<!-- Node1&#45;&gt;Node9 -->
<g id="edge9_Node000001_Node000009" class="edge">
<title>Node1&#45;&gt;Node9</title>
<g id="a_edge9_Node000001_Node000009"><a xlink:title=" ">
<path fill="none" stroke="#63b8ff" d="M212,-164.75C212,-157.8 212,-147.85 212,-139.13"/>
<polygon fill="#63b8ff" stroke="#63b8ff" points="215.5,-139.09 212,-129.09 208.5,-139.09 215.5,-139.09"/>
</a>
</g>
</g>
<!-- Node10 -->
<g id="Node000010" class="node">
<title>Node10</title>
<g id="a_Node000010"><a xlink:title=" ">
<polygon fill="#e0e0e0" stroke="#999999" points="318,-129 258,-129 258,-110 318,-110 318,-129"/>
<text text-anchor="middle" x="288" y="-117" font-family="Helvetica,sans-Serif" font-size="10.00">iostream</text>
</a>
</g>
</g>
<!-- Node1&#45;&gt;Node10 -->
<g id="edge10_Node000001_Node000010" class="edge">
<title>Node1&#45;&gt;Node10</title>
<g id="a_edge10_Node000001_Node000010"><a xlink:title=" ">
<path fill="none" stroke="#63b8ff" d="M224.21,-164.98C235.78,-156.92 253.38,-144.65 267.16,-135.03"/>
<polygon fill="#63b8ff" stroke="#63b8ff" points="269.37,-137.76 275.57,-129.17 265.36,-132.02 269.37,-137.76"/>
</a>
</g>
</g>
<!-- Node11 -->
<g id="Node000011" class="node">
<title>Node11</title>
<g id="a_Node000011"><a xlink:title=" ">
<polygon fill="#e0e0e0" stroke="#999999" points="391.5,-129 336.5,-129 336.5,-110 391.5,-110 391.5,-129"/>
<text text-anchor="middle" x="364" y="-117" font-family="Helvetica,sans-Serif" font-size="10.00">zstr.hpp</text>
</a>
</g>
</g>
<!-- Node1&#45;&gt;Node11 -->
<g id="edge11_Node000001_Node000011" class="edge">
<title>Node1&#45;&gt;Node11</title>
<g id="a_edge11_Node000001_Node000011"><a xlink:title=" ">
<path fill="none" stroke="#63b8ff" d="M236.42,-164.98C261.72,-156.16 301.45,-142.31 329.86,-132.41"/>
<polygon fill="#63b8ff" stroke="#63b8ff" points="331.1,-135.68 339.39,-129.08 328.79,-129.07 331.1,-135.68"/>
</a>
</g>
</g>
<!-- Node3 -->
<g id="Node000003" class="node">
<title>Node3</title>
<g id="a_Node000003"><a xlink:title=" ">
<polygon fill="#e0e0e0" stroke="#999999" points="44,-19 0,-19 0,0 44,0 44,-19"/>
<text text-anchor="middle" x="22" y="-7" font-family="Helvetica,sans-Serif" font-size="10.00">string</text>
</a>
</g>
</g>
<!-- Node2&#45;&gt;Node3 -->
<g id="edge2_Node000002_Node000003" class="edge">
<title>Node2&#45;&gt;Node3</title>
<g id="a_edge2_Node000002_Node000003"><a xlink:title=" ">
<path fill="none" stroke="#63b8ff" d="M32.39,-109.69C24.13,-101.41 12.8,-88.18 8,-74 2.92,-58.98 7.63,-41.33 12.91,-28.45"/>
<polygon fill="#63b8ff" stroke="#63b8ff" points="16.13,-29.84 17.1,-19.29 9.76,-26.93 16.13,-29.84"/>
</a>
</g>
</g>
<!-- Node4 -->
<g id="Node000004" class="node">
<title>Node4</title>
<g id="a_Node000004"><a xlink:title=" ">
<polygon fill="#e0e0e0" stroke="#999999" points="67,-74 17,-74 17,-55 67,-55 67,-74"/>
<text text-anchor="middle" x="42" y="-62" font-family="Helvetica,sans-Serif" font-size="10.00">chrono</text>
</a>
</g>
</g>
<!-- Node2&#45;&gt;Node4 -->
<g id="edge3_Node000002_Node000004" class="edge">
<title>Node2&#45;&gt;Node4</title>
<g id="a_edge3_Node000002_Node000004"><a xlink:title=" ">
<path fill="none" stroke="#63b8ff" d="M42,-109.75C42,-102.8 42,-92.85 42,-84.13"/>
<polygon fill="#63b8ff" stroke="#63b8ff" points="45.5,-84.09 42,-74.09 38.5,-84.09 45.5,-84.09"/>
</a>
</g>
</g>
<!-- Node5 -->
<g id="Node000005" class="node">
<title>Node5</title>
<g id="a_Node000005"><a xlink:href="tree_8hpp.html" target="_top" xlink:title=" ">
<polygon fill="white" stroke="#666666" points="142.5,-74 85.5,-74 85.5,-55 142.5,-55 142.5,-74"/>
<text text-anchor="middle" x="114" y="-62" font-family="Helvetica,sans-Serif" font-size="10.00">tree.hpp</text>
</a>
</g>
</g>
<!-- Node2&#45;&gt;Node5 -->
<g id="edge4_Node000002_Node000005" class="edge">
<title>Node2&#45;&gt;Node5</title>
<g id="a_edge4_Node000002_Node000005"><a xlink:title=" ">
<path fill="none" stroke="#63b8ff" d="M53.57,-109.98C64.42,-102 80.88,-89.88 93.88,-80.31"/>
<polygon fill="#63b8ff" stroke="#63b8ff" points="96.24,-82.92 102.22,-74.17 92.09,-77.28 96.24,-82.92"/>
</a>
</g>
</g>
<!-- Node5&#45;&gt;Node3 -->
<g id="edge5_Node000005_Node000003" class="edge">
<title>Node5&#45;&gt;Node3</title>
<g id="a_edge5_Node000005_Node000003"><a xlink:title=" ">
<path fill="none" stroke="#63b8ff" d="M99.22,-54.98C84.82,-46.69 62.69,-33.94 45.81,-24.22"/>
<polygon fill="#63b8ff" stroke="#63b8ff" points="47.46,-21.13 37.05,-19.17 43.97,-27.19 47.46,-21.13"/>
</a>
</g>
</g>
<!-- Node6 -->
<g id="Node000006" class="node">
<title>Node6</title>
<g id="a_Node000006"><a xlink:title=" ">
<polygon fill="#e0e0e0" stroke="#999999" points="102,-19 64,-19 64,0 102,0 102,-19"/>
<text text-anchor="middle" x="83" y="-7" font-family="Helvetica,sans-Serif" font-size="10.00">map</text>
</a>
</g>
</g>
<!-- Node5&#45;&gt;Node6 -->
<g id="edge6_Node000005_Node000006" class="edge">
<title>Node5&#45;&gt;Node6</title>
<g id="a_edge6_Node000005_Node000006"><a xlink:title=" ">
<path fill="none" stroke="#63b8ff" d="M108.88,-54.75C104.64,-47.49 98.47,-36.95 93.22,-27.98"/>
<polygon fill="#63b8ff" stroke="#63b8ff" points="96.09,-25.95 88.02,-19.09 90.05,-29.49 96.09,-25.95"/>
</a>
</g>
</g>
<!-- Node7 -->
<g id="Node000007" class="node">
<title>Node7</title>
<g id="a_Node000007"><a xlink:title=" ">
<polygon fill="#e0e0e0" stroke="#999999" points="167.5,-19 120.5,-19 120.5,0 167.5,0 167.5,-19"/>
<text text-anchor="middle" x="144" y="-7" font-family="Helvetica,sans-Serif" font-size="10.00">vector</text>
</a>
</g>
</g>
<!-- Node5&#45;&gt;Node7 -->
<g id="edge7_Node000005_Node000007" class="edge">
<title>Node5&#45;&gt;Node7</title>
<g id="a_edge7_Node000005_Node000007"><a xlink:title=" ">
<path fill="none" stroke="#63b8ff" d="M118.95,-54.75C123.06,-47.49 129.03,-36.95 134.1,-27.98"/>
<polygon fill="#63b8ff" stroke="#63b8ff" points="137.26,-29.52 139.14,-19.09 131.17,-26.07 137.26,-29.52"/>
</a>
</g>
</g>
</g>
</svg>
