<?xml version="1.0" encoding="UTF-8" standalone="no"?>
<!DOCTYPE svg PUBLIC "-//W3C//DTD SVG 1.1//EN"
 "http://www.w3.org/Graphics/SVG/1.1/DTD/svg11.dtd">
<!-- Generated by graphviz version 2.43.0 (0)
 -->
<!-- Title: src/tree.hpp Pages: 1 -->
<svg width="548pt" height="137pt"
 viewBox="0.00 0.00 548.00 137.00" xmlns="http://www.w3.org/2000/svg" xmlns:xlink="http://www.w3.org/1999/xlink">
<g id="graph0" class="graph" transform="scale(1 1) rotate(0) translate(4 133)">
<title>src/tree.hpp</title>
<!-- Node1 -->
<g id="Node000001" class="node">
<title>Node1</title>
<g id="a_Node000001"><a xlink:title=" ">
<polygon fill="#999999" stroke="#666666" points="265,-129 191,-129 191,-110 265,-110 265,-129"/>
<text text-anchor="middle" x="228" y="-117" font-family="Helvetica,sans-Serif" font-size="10.00">src/tree.hpp</text>
</a>
</g>
</g>
<!-- Node2 -->
<g id="Node000002" class="node">
<title>Node2</title>
<g id="a_Node000002"><a xlink:href="add_8cpp.html" target="_top" xlink:title=" ">
<polygon fill="white" stroke="#666666" points="72,-74 0,-74 0,-55 72,-55 72,-74"/>
<text text-anchor="middle" x="36" y="-62" font-family="Helvetica,sans-Serif" font-size="10.00">src/add.cpp</text>
</a>
</g>
</g>
<!-- Node1&#45;&gt;Node2 -->
<g id="edge1_Node000001_Node000002" class="edge">
<title>Node1&#45;&gt;Node2</title>
<g id="a_edge1_Node000001_Node000002"><a xlink:title=" ">
<path fill="none" stroke="#63b8ff" d="M187.47,-107.31C151.54,-97.39 99.84,-83.12 67.09,-74.08"/>
<polygon fill="#63b8ff" stroke="#63b8ff" points="186.58,-110.7 197.15,-109.98 188.44,-103.95 186.58,-110.7"/>
</a>
</g>
</g>
<!-- Node3 -->
<g id="Node000003" class="node">
<title>Node3</title>
<g id="a_Node000003"><a xlink:href="checkout_8cpp.html" target="_top" xlink:title=" ">
<polygon fill="white" stroke="#666666" points="130,-19 32,-19 32,0 130,0 130,-19"/>
<text text-anchor="middle" x="81" y="-7" font-family="Helvetica,sans-Serif" font-size="10.00">src/checkout.cpp</text>
</a>
</g>
</g>
<!-- Node1&#45;&gt;Node3 -->
<g id="edge2_Node000001_Node000003" class="edge">
<title>Node1&#45;&gt;Node3</title>
<g id="a_edge2_Node000001_Node000003"><a xlink:title=" ">
<path fill="none" stroke="#63b8ff" d="M181.82,-106.93C160.92,-99.97 136.94,-89.4 119,-74 101.07,-58.6 89.28,-32.53 84.07,-19.09"/>
<polygon fill="#63b8ff" stroke="#63b8ff" points="180.9,-110.31 191.49,-109.97 183,-103.63 180.9,-110.31"/>
</a>
</g>
</g>
<!-- Node4 -->
<g id="Node000004" class="node">
<title>Node4</title>
<g id="a_Node000004"><a xlink:href="commit_8hpp.html" target="_top" xlink:title=" ">
<polygon fill="white" stroke="#666666" points="220,-74 128,-74 128,-55 220,-55 220,-74"/>
<text text-anchor="middle" x="174" y="-62" font-family="Helvetica,sans-Serif" font-size="10.00">src/commit.hpp</text>
</a>
</g>
</g>
<!-- Node1&#45;&gt;Node4 -->
<g id="edge3_Node000001_Node000004" class="edge">
<title>Node1&#45;&gt;Node4</title>
<g id="a_edge3_Node000001_Node000004"><a xlink:title=" ">
<path fill="none" stroke="#63b8ff" d="M211.72,-102.52C202.2,-93.18 190.56,-81.75 182.75,-74.09"/>
<polygon fill="#63b8ff" stroke="#63b8ff" points="209.49,-105.24 219.08,-109.75 214.4,-100.25 209.49,-105.24"/>
</a>
</g>
</g>
<!-- Node7 -->
<g id="Node000007" class="node">
<title>Node7</title>
<g id="a_Node000007"><a xlink:href="ls__tree_8cpp.html" target="_top" xlink:title=" ">
<polygon fill="white" stroke="#666666" points="325.5,-74 238.5,-74 238.5,-55 325.5,-55 325.5,-74"/>
<text text-anchor="middle" x="282" y="-62" font-family="Helvetica,sans-Serif" font-size="10.00">src/ls_tree.cpp</text>
</a>
</g>
</g>
<!-- Node1&#45;&gt;Node7 -->
<g id="edge7_Node000001_Node000007" class="edge">
<title>Node1&#45;&gt;Node7</title>
<g id="a_edge7_Node000001_Node000007"><a xlink:title=" ">
<path fill="none" stroke="#63b8ff" d="M244.28,-102.52C253.8,-93.18 265.44,-81.75 273.25,-74.09"/>
<polygon fill="#63b8ff" stroke="#63b8ff" points="241.6,-100.25 236.92,-109.75 246.51,-105.24 241.6,-100.25"/>
</a>
</g>
</g>
<!-- Node8 -->
<g id="Node000008" class="node">
<title>Node8</title>
<g id="a_Node000008"><a xlink:href="tree_8cpp.html" target="_top" xlink:title=" ">
<polygon fill="white" stroke="#666666" points="418,-74 344,-74 344,-55 418,-55 418,-74"/>
<text text-anchor="middle" x="381" y="-62" font-family="Helvetica,sans-Serif" font-size="10.00">src/tree.cpp</text>
</a>
</g>
</g>
<!-- Node1&#45;&gt;Node8 -->
<g id="edge8_Node000001_Node000008" class="edge">
<title>Node1&#45;&gt;Node8</title>
<g id="a_edge8_Node000001_Node000008"><a xlink:title=" ">
<path fill="none" stroke="#63b8ff" d="M262.15,-106.67C290.68,-96.79 330.69,-82.93 356.23,-74.08"/>
<polygon fill="#63b8ff" stroke="#63b8ff" points="260.89,-103.4 252.58,-109.98 263.18,-110.02 260.89,-103.4"/>
</a>
</g>
</g>
<!-- Node9 -->
<g id="Node000009" class="node">
<title>Node9</title>
<g id="a_Node000009"><a xlink:href="write__tree_8cpp.html" target="_top" xlink:title=" ">
<polygon fill="white" stroke="#666666" points="540,-74 436,-74 436,-55 540,-55 540,-74"/>
<text text-anchor="middle" x="488" y="-62" font-family="Helvetica,sans-Serif" font-size="10.00">src/write_tree.cpp</text>
</a>
</g>
</g>
<!-- Node1&#45;&gt;Node9 -->
<g id="edge9_Node000001_Node000009" class="edge">
<title>Node1&#45;&gt;Node9</title>
<g id="a_edge9_Node000001_Node000009"><a xlink:title=" ">
<path fill="none" stroke="#63b8ff" d="M275.23,-108.87C324,-98.93 399.36,-83.57 446.08,-74.05"/>
<polygon fill="#63b8ff" stroke="#63b8ff" points="274.35,-105.48 265.25,-110.91 275.75,-112.34 274.35,-105.48"/>
</a>
</g>
</g>
<!-- Node4&#45;&gt;Node3 -->
<g id="edge4_Node000004_Node000003" class="edge">
<title>Node4&#45;&gt;Node3</title>
<g id="a_edge4_Node000004_Node000003"><a xlink:title=" ">
<path fill="none" stroke="#63b8ff" d="M150.25,-49.97C133.25,-40.28 110.87,-27.52 96.21,-19.17"/>
<polygon fill="#63b8ff" stroke="#63b8ff" points="148.64,-53.07 159.06,-54.98 152.1,-46.99 148.64,-53.07"/>
</a>
</g>
</g>
<!-- Node5 -->
<g id="Node000005" class="node">
<title>Node5</title>
<g id="a_Node000005"><a xlink:href="commit_8cpp.html" target="_top" xlink:title=" ">
<polygon fill="white" stroke="#666666" points="240,-19 148,-19 148,0 240,0 240,-19"/>
<text text-anchor="middle" x="194" y="-7" font-family="Helvetica,sans-Serif" font-size="10.00">src/commit.cpp</text>
</a>
</g>
</g>
<!-- Node4&#45;&gt;Node5 -->
<g id="edge5_Node000004_Node000005" class="edge">
<title>Node4&#45;&gt;Node5</title>
<g id="a_edge5_Node000004_Node000005"><a xlink:title=" ">
<path fill="none" stroke="#63b8ff" d="M180.89,-45.24C184.24,-36.37 188.1,-26.14 190.76,-19.09"/>
<polygon fill="#63b8ff" stroke="#63b8ff" points="177.56,-44.16 177.3,-54.75 184.11,-46.63 177.56,-44.16"/>
</a>
</g>
</g>
<!-- Node6 -->
<g id="Node000006" class="node">
<title>Node6</title>
<g id="a_Node000006"><a xlink:href="log_8cpp.html" target="_top" xlink:title=" ">
<polygon fill="white" stroke="#666666" points="327.5,-19 258.5,-19 258.5,0 327.5,0 327.5,-19"/>
<text text-anchor="middle" x="293" y="-7" font-family="Helvetica,sans-Serif" font-size="10.00">src/log.cpp</text>
</a>
</g>
</g>
<!-- Node4&#45;&gt;Node6 -->
<g id="edge6_Node000004_Node000006" class="edge">
<title>Node4&#45;&gt;Node6</title>
<g id="a_edge6_Node000004_Node000006"><a xlink:title=" ">
<path fill="none" stroke="#63b8ff" d="M202.3,-50.9C224.28,-41.11 254.18,-27.79 273.53,-19.17"/>
<polygon fill="#63b8ff" stroke="#63b8ff" points="200.83,-47.72 193.12,-54.98 203.68,-54.11 200.83,-47.72"/>
</a>
</g>
</g>
</g>
</svg>
