<?xml version="1.0" encoding="UTF-8" standalone="no"?>
<!DOCTYPE svg PUBLIC "-//W3C//DTD SVG 1.1//EN"
 "http://www.w3.org/Graphics/SVG/1.1/DTD/svg11.dtd">
<!-- Generated by graphviz version 2.43.0 (0)
 -->
<!-- Title: src/tree.cpp Pages: 1 -->
<svg width="595pt" height="137pt"
 viewBox="0.00 0.00 595.00 137.00" xmlns="http://www.w3.org/2000/svg" xmlns:xlink="http://www.w3.org/1999/xlink">
<g id="graph0" class="graph" transform="scale(1 1) rotate(0) translate(4 133)">
<title>src/tree.cpp</title>
<!-- Node1 -->
<g id="Node000001" class="node">
<title>Node1</title>
<g id="a_Node000001"><a xlink:title=" ">
<polygon fill="#999999" stroke="#666666" points="334.5,-129 260.5,-129 260.5,-110 334.5,-110 334.5,-129"/>
<text text-anchor="middle" x="297.5" y="-117" font-family="Helvetica,sans-Serif" font-size="10.00">src/tree.cpp</text>
</a>
</g>
</g>
<!-- Node2 -->
<g id="Node000002" class="node">
<title>Node2</title>
<g id="a_Node000002"><a xlink:href="blob_8hpp.html" target="_top" xlink:title=" ">
<polygon fill="white" stroke="#666666" points="59,-74 0,-74 0,-55 59,-55 59,-74"/>
<text text-anchor="middle" x="29.5" y="-62" font-family="Helvetica,sans-Serif" font-size="10.00">blob.hpp</text>
</a>
</g>
</g>
<!-- Node1&#45;&gt;Node2 -->
<g id="edge1_Node000001_Node000002" class="edge">
<title>Node1&#45;&gt;Node2</title>
<g id="a_edge1_Node000001_Node000002"><a xlink:title=" ">
<path fill="none" stroke="#63b8ff" d="M260.39,-111.66C216.82,-103.56 142.15,-89.44 69.17,-74.31"/>
<polygon fill="#63b8ff" stroke="#63b8ff" points="69.86,-70.87 59.35,-72.26 68.43,-77.73 69.86,-70.87"/>
</a>
</g>
</g>
<!-- Node4 -->
<g id="Node000004" class="node">
<title>Node4</title>
<g id="a_Node000004"><a xlink:title=" ">
<polygon fill="#e0e0e0" stroke="#999999" points="293.5,-74 225.5,-74 225.5,-55 293.5,-55 293.5,-74"/>
<text text-anchor="middle" x="259.5" y="-62" font-family="Helvetica,sans-Serif" font-size="10.00">filesystem</text>
</a>
</g>
</g>
<!-- Node1&#45;&gt;Node4 -->
<g id="edge3_Node000001_Node000004" class="edge">
<title>Node1&#45;&gt;Node4</title>
<g id="a_edge3_Node000001_Node000004"><a xlink:title=" ">
<path fill="none" stroke="#63b8ff" d="M291.23,-109.75C285.91,-102.34 278.14,-91.5 271.62,-82.41"/>
<polygon fill="#63b8ff" stroke="#63b8ff" points="274.33,-80.18 265.66,-74.09 268.64,-84.26 274.33,-80.18"/>
</a>
</g>
</g>
<!-- Node5 -->
<g id="Node000005" class="node">
<title>Node5</title>
<g id="a_Node000005"><a xlink:title=" ">
<polygon fill="#e0e0e0" stroke="#999999" points="361.5,-74 311.5,-74 311.5,-55 361.5,-55 361.5,-74"/>
<text text-anchor="middle" x="336.5" y="-62" font-family="Helvetica,sans-Serif" font-size="10.00">format</text>
</a>
</g>
</g>
<!-- Node1&#45;&gt;Node5 -->
<g id="edge4_Node000001_Node000005" class="edge">
<title>Node1&#45;&gt;Node5</title>
<g id="a_edge4_Node000001_Node000005"><a xlink:title=" ">
<path fill="none" stroke="#63b8ff" d="M303.94,-109.75C309.39,-102.34 317.36,-91.5 324.06,-82.41"/>
<polygon fill="#63b8ff" stroke="#63b8ff" points="327.07,-84.22 330.18,-74.09 321.43,-80.07 327.07,-84.22"/>
</a>
</g>
</g>
<!-- Node6 -->
<g id="Node000006" class="node">
<title>Node6</title>
<g id="a_Node000006"><a xlink:title=" ">
<polygon fill="#e0e0e0" stroke="#999999" points="435,-74 380,-74 380,-55 435,-55 435,-74"/>
<text text-anchor="middle" x="407.5" y="-62" font-family="Helvetica,sans-Serif" font-size="10.00">fstream</text>
</a>
</g>
</g>
<!-- Node1&#45;&gt;Node6 -->
<g id="edge5_Node000001_Node000006" class="edge">
<title>Node1&#45;&gt;Node6</title>
<g id="a_edge5_Node000001_Node000006"><a xlink:title=" ">
<path fill="none" stroke="#63b8ff" d="M315.17,-109.98C332.79,-101.5 360.08,-88.35 380.43,-78.54"/>
<polygon fill="#63b8ff" stroke="#63b8ff" points="382.02,-81.66 389.51,-74.17 378.98,-75.36 382.02,-81.66"/>
</a>
</g>
</g>
<!-- Node7 -->
<g id="Node000007" class="node">
<title>Node7</title>
<g id="a_Node000007"><a xlink:title=" ">
<polygon fill="#e0e0e0" stroke="#999999" points="513.5,-74 453.5,-74 453.5,-55 513.5,-55 513.5,-74"/>
<text text-anchor="middle" x="483.5" y="-62" font-family="Helvetica,sans-Serif" font-size="10.00">iostream</text>
</a>
</g>
</g>
<!-- Node1&#45;&gt;Node7 -->
<g id="edge6_Node000001_Node000007" class="edge">
<title>Node1&#45;&gt;Node7</title>
<g id="a_edge6_Node000001_Node000007"><a xlink:title=" ">
<path fill="none" stroke="#63b8ff" d="M327.38,-109.98C358.88,-101.01 408.67,-86.82 443.53,-76.89"/>
<polygon fill="#63b8ff" stroke="#63b8ff" points="444.72,-80.19 453.38,-74.08 442.81,-73.46 444.72,-80.19"/>
</a>
</g>
</g>
<!-- Node8 -->
<g id="Node000008" class="node">
<title>Node8</title>
<g id="a_Node000008"><a xlink:href="sha_8hpp.html" target="_top" xlink:title=" ">
<polygon fill="white" stroke="#666666" points="132,-74 77,-74 77,-55 132,-55 132,-74"/>
<text text-anchor="middle" x="104.5" y="-62" font-family="Helvetica,sans-Serif" font-size="10.00">sha.hpp</text>
</a>
</g>
</g>
<!-- Node1&#45;&gt;Node8 -->
<g id="edge7_Node000001_Node000008" class="edge">
<title>Node1&#45;&gt;Node8</title>
<g id="a_edge7_Node000001_Node000008"><a xlink:title=" ">
<path fill="none" stroke="#63b8ff" d="M266.49,-109.98C232.6,-100.68 178.29,-85.76 142.02,-75.8"/>
<polygon fill="#63b8ff" stroke="#63b8ff" points="142.87,-72.41 132.3,-73.13 141.02,-79.16 142.87,-72.41"/>
</a>
</g>
</g>
<!-- Node10 -->
<g id="Node000010" class="node">
<title>Node10</title>
<g id="a_Node000010"><a xlink:href="tree_8hpp.html" target="_top" xlink:title=" ">
<polygon fill="white" stroke="#666666" points="207,-74 150,-74 150,-55 207,-55 207,-74"/>
<text text-anchor="middle" x="178.5" y="-62" font-family="Helvetica,sans-Serif" font-size="10.00">tree.hpp</text>
</a>
</g>
</g>
<!-- Node1&#45;&gt;Node10 -->
<g id="edge10_Node000001_Node000010" class="edge">
<title>Node1&#45;&gt;Node10</title>
<g id="a_edge10_Node000001_Node000010"><a xlink:title=" ">
<path fill="none" stroke="#63b8ff" d="M278.38,-109.98C259.15,-101.42 229.27,-88.11 207.19,-78.28"/>
<polygon fill="#63b8ff" stroke="#63b8ff" points="208.53,-75.04 197.97,-74.17 205.68,-81.44 208.53,-75.04"/>
</a>
</g>
</g>
<!-- Node12 -->
<g id="Node000012" class="node">
<title>Node12</title>
<g id="a_Node000012"><a xlink:title=" ">
<polygon fill="#e0e0e0" stroke="#999999" points="587,-74 532,-74 532,-55 587,-55 587,-74"/>
<text text-anchor="middle" x="559.5" y="-62" font-family="Helvetica,sans-Serif" font-size="10.00">zstr.hpp</text>
</a>
</g>
</g>
<!-- Node1&#45;&gt;Node12 -->
<g id="edge14_Node000001_Node000012" class="edge">
<title>Node1&#45;&gt;Node12</title>
<g id="a_edge14_Node000001_Node000012"><a xlink:title=" ">
<path fill="none" stroke="#63b8ff" d="M334.6,-111.52C377.25,-103.42 449.62,-89.43 521.5,-74.16"/>
<polygon fill="#63b8ff" stroke="#63b8ff" points="522.59,-77.51 531.64,-72 521.13,-70.66 522.59,-77.51"/>
</a>
</g>
</g>
<!-- Node3 -->
<g id="Node000003" class="node">
<title>Node3</title>
<g id="a_Node000003"><a xlink:title=" ">
<polygon fill="#e0e0e0" stroke="#999999" points="100.5,-19 56.5,-19 56.5,0 100.5,0 100.5,-19"/>
<text text-anchor="middle" x="78.5" y="-7" font-family="Helvetica,sans-Serif" font-size="10.00">string</text>
</a>
</g>
</g>
<!-- Node2&#45;&gt;Node3 -->
<g id="edge2_Node000002_Node000003" class="edge">
<title>Node2&#45;&gt;Node3</title>
<g id="a_edge2_Node000002_Node000003"><a xlink:title=" ">
<path fill="none" stroke="#63b8ff" d="M37.59,-54.75C44.66,-47.11 55.09,-35.82 63.65,-26.56"/>
<polygon fill="#63b8ff" stroke="#63b8ff" points="66.34,-28.81 70.56,-19.09 61.2,-24.06 66.34,-28.81"/>
</a>
</g>
</g>
<!-- Node8&#45;&gt;Node3 -->
<g id="edge8_Node000008_Node000003" class="edge">
<title>Node8&#45;&gt;Node3</title>
<g id="a_edge8_Node000008_Node000003"><a xlink:title=" ">
<path fill="none" stroke="#63b8ff" d="M100.21,-54.75C96.69,-47.57 91.59,-37.18 87.22,-28.27"/>
<polygon fill="#63b8ff" stroke="#63b8ff" points="90.26,-26.53 82.71,-19.09 83.98,-29.61 90.26,-26.53"/>
</a>
</g>
</g>
<!-- Node9 -->
<g id="Node000009" class="node">
<title>Node9</title>
<g id="a_Node000009"><a xlink:title=" ">
<polygon fill="#e0e0e0" stroke="#999999" points="166,-19 119,-19 119,0 166,0 166,-19"/>
<text text-anchor="middle" x="142.5" y="-7" font-family="Helvetica,sans-Serif" font-size="10.00">vector</text>
</a>
</g>
</g>
<!-- Node8&#45;&gt;Node9 -->
<g id="edge9_Node000008_Node000009" class="edge">
<title>Node8&#45;&gt;Node9</title>
<g id="a_edge9_Node000008_Node000009"><a xlink:title=" ">
<path fill="none" stroke="#63b8ff" d="M110.77,-54.75C116.09,-47.34 123.86,-36.5 130.38,-27.41"/>
<polygon fill="#63b8ff" stroke="#63b8ff" points="133.36,-29.26 136.34,-19.09 127.67,-25.18 133.36,-29.26"/>
</a>
</g>
</g>
<!-- Node10&#45;&gt;Node3 -->
<g id="edge11_Node000010_Node000003" class="edge">
<title>Node10&#45;&gt;Node3</title>
<g id="a_edge11_Node000010_Node000003"><a xlink:title=" ">
<path fill="none" stroke="#63b8ff" d="M162.43,-54.98C146.64,-46.61 122.28,-33.7 103.87,-23.95"/>
<polygon fill="#63b8ff" stroke="#63b8ff" points="105.33,-20.76 94.86,-19.17 102.06,-26.95 105.33,-20.76"/>
</a>
</g>
</g>
<!-- Node10&#45;&gt;Node9 -->
<g id="edge13_Node000010_Node000009" class="edge">
<title>Node10&#45;&gt;Node9</title>
<g id="a_edge13_Node000010_Node000009"><a xlink:title=" ">
<path fill="none" stroke="#63b8ff" d="M172.56,-54.75C167.52,-47.34 160.16,-36.5 153.99,-27.41"/>
<polygon fill="#63b8ff" stroke="#63b8ff" points="156.85,-25.39 148.33,-19.09 151.06,-29.33 156.85,-25.39"/>
</a>
</g>
</g>
<!-- Node11 -->
<g id="Node000011" class="node">
<title>Node11</title>
<g id="a_Node000011"><a xlink:title=" ">
<polygon fill="#e0e0e0" stroke="#999999" points="222.5,-19 184.5,-19 184.5,0 222.5,0 222.5,-19"/>
<text text-anchor="middle" x="203.5" y="-7" font-family="Helvetica,sans-Serif" font-size="10.00">map</text>
</a>
</g>
</g>
<!-- Node10&#45;&gt;Node11 -->
<g id="edge12_Node000010_Node000011" class="edge">
<title>Node10&#45;&gt;Node11</title>
<g id="a_edge12_Node000010_Node000011"><a xlink:title=" ">
<path fill="none" stroke="#63b8ff" d="M182.63,-54.75C186.01,-47.57 190.92,-37.18 195.12,-28.27"/>
<polygon fill="#63b8ff" stroke="#63b8ff" points="198.35,-29.63 199.45,-19.09 192.02,-26.64 198.35,-29.63"/>
</a>
</g>
</g>
</g>
</svg>
